<?xml version="1.0" standalone="no"?>
<!DOCTYPE svg PUBLIC "-//W3C//DTD SVG 20010904//EN"
 "http://www.w3.org/TR/2001/REC-SVG-20010904/DTD/svg10.dtd">
<svg version="1.0" xmlns="http://www.w3.org/2000/svg"
 width="1600.000000pt" height="660.000000pt" viewBox="0 0 1600.000000 660.000000"
 preserveAspectRatio="xMidYMid meet">

<g transform="translate(0.000000,660.000000) scale(0.100000,-0.100000)"
fill="#000000" stroke="none">
<path d="M8567 5089 c-178 -19 -298 -69 -393 -163 -105 -105 -150 -239 -125
-373 17 -94 47 -150 116 -219 96 -97 227 -155 505 -224 159 -40 211 -63 255
-111 30 -33 35 -46 35 -88 0 -61 -29 -107 -90 -141 -37 -20 -59 -25 -125 -25
-67 0 -89 4 -137 28 -79 39 -126 106 -143 206 -7 40 -8 41 -38 37 -18 -3 -124
-10 -237 -17 -113 -6 -207 -13 -209 -15 -2 -1 4 -38 13 -81 31 -157 132 -311
247 -380 164 -97 533 -130 775 -68 211 55 368 204 419 401 29 113 13 244 -42
347 -36 65 -130 150 -211 191 -87 44 -248 95 -445 141 -133 31 -164 42 -193
67 -27 24 -34 37 -34 68 0 43 27 83 73 106 48 25 165 22 223 -6 51 -25 99 -89
110 -147 5 -29 10 -33 38 -33 75 0 432 23 437 29 12 11 -19 130 -52 198 -103
217 -379 314 -772 272z"/>
<path d="M3120 4261 l0 -811 250 0 250 0 0 330 0 330 33 0 c62 0 111 -21 152
-64 25 -27 95 -145 189 -319 l148 -277 279 0 c153 0 279 4 279 8 0 12 -238
471 -263 507 -61 89 -113 139 -175 168 l-65 30 69 25 c85 30 134 61 190 118
195 201 143 578 -96 699 -109 55 -140 58 -712 62 l-528 4 0 -810z m878 456
c93 -50 98 -204 8 -262 -36 -24 -166 -44 -283 -45 l-103 0 0 166 0 166 173 -4
c141 -3 178 -7 205 -21z"/>
<path d="M3597 3169 c-238 -24 -400 -114 -480 -266 -88 -167 -67 -345 56 -479
88 -97 237 -166 492 -229 181 -45 240 -70 283 -119 54 -62 41 -155 -30 -210
-101 -76 -299 -49 -375 51 -14 18 -35 66 -47 105 -20 66 -25 73 -47 71 -13 -1
-116 -7 -229 -14 -113 -6 -208 -14 -212 -18 -15 -13 23 -159 62 -238 114 -231
293 -316 670 -316 237 -1 357 26 485 108 277 177 329 561 104 769 -100 93
-263 159 -554 225 -157 36 -182 45 -217 79 -55 52 -24 145 58 172 50 17 170 8
218 -15 44 -21 92 -89 102 -143 l7 -35 151 8 c83 4 189 10 236 13 l85 7 -3 35
c-17 168 -141 331 -296 389 -126 47 -345 69 -519 50z"/>
<path d="M5499 3169 c-269 -28 -476 -158 -588 -369 -74 -138 -111 -373 -91
-571 22 -228 88 -376 230 -520 100 -102 183 -147 332 -181 134 -30 408 -30
521 0 188 51 329 165 410 333 26 52 53 118 61 146 l15 53 -102 31 c-56 17
-152 46 -213 65 -61 19 -113 34 -116 34 -4 0 -16 -28 -27 -62 -60 -178 -146
-248 -306 -248 -78 0 -142 22 -194 67 -82 70 -111 171 -111 388 0 204 26 297
106 379 74 76 208 106 315 71 70 -23 141 -90 169 -159 l22 -52 216 48 c118 26
217 50 219 51 2 2 -3 23 -12 46 -56 160 -182 310 -315 374 -90 44 -163 63
-290 77 -107 11 -142 11 -251 -1z"/>
<path d="M9337 3169 c-356 -38 -596 -240 -679 -574 -18 -75 -22 -117 -22 -255
1 -223 28 -339 115 -488 47 -80 171 -201 249 -245 235 -130 668 -139 906 -19
116 59 224 155 282 254 l16 27 35 -52 c128 -192 336 -294 636 -313 389 -23
689 129 820 419 l24 52 0 -222 1 -223 640 0 640 0 0 200 0 200 -390 0 -390 0
0 610 0 610 -250 0 -250 0 0 -222 0 -223 -35 70 c-119 238 -324 364 -642 395
-344 34 -630 -74 -798 -302 l-42 -57 -32 48 c-55 85 -161 176 -263 225 -107
51 -183 72 -318 86 -107 11 -142 11 -253 -1z m205 -380 c67 -14 99 -31 149
-76 83 -75 114 -178 113 -373 -1 -210 -33 -312 -120 -389 -63 -55 -131 -75
-238 -69 -66 3 -92 10 -135 33 -106 58 -154 146 -173 321 -14 123 0 270 33
360 56 150 206 228 371 193z m1545 -30 c139 -67 191 -201 180 -463 -9 -218
-55 -321 -172 -381 -74 -38 -182 -46 -270 -20 -85 24 -163 104 -196 200 -22
63 -24 86 -24 240 0 189 11 243 64 326 82 130 265 173 418 98z"/>
<path d="M6770 2340 l0 -810 250 0 250 0 0 325 0 325 275 0 275 0 0 -325 0
-325 250 0 250 0 0 810 0 810 -250 0 -250 0 0 -285 0 -285 -272 2 -273 3 -3
283 -2 282 -250 0 -250 0 0 -810z"/>
</g>
</svg>
